<svg xmlns="http://www.w3.org/2000/svg" version="1.1" style="display: block;" preserveAspectRatio="none" viewBox="61.25 692.05 1931 682.31">
<path transform="translate(0,0)" fill="rgb(0,0,0)" d="M 520.146 692.381 C 550.153 688.96 581.567 712.511 591.135 740.672 C 602.266 729.013 611.497 712.741 625.103 703.967 C 633.303 698.68 642.679 696.836 652.199 699.237 C 660.486 701.327 667.582 706.146 671.752 713.721 C 691.076 748.826 633.707 958.315 620.567 1002.24 C 627.286 1001.58 630.769 1001.02 637.471 1001.93 C 638.004 999.737 638.561 997.55 639.143 995.369 C 652.248 946.375 681.067 905.026 718.09 871.059 C 726.159 863.656 733.746 857.413 745.19 857 C 760.861 856.804 775.555 857.858 791.342 858.773 C 811.128 859.921 833.435 858.008 852.794 862.188 C 859.526 863.642 867.065 870.344 869.76 876.636 C 874.432 887.545 871.245 897.495 867.043 907.887 L 879.872 925.71 C 875.75 891.367 880.423 876.122 916.847 873.016 C 933.865 871.013 950.226 866.863 966.383 861.347 C 987.583 854.11 993.86 851.292 1011.04 866.406 C 1015.56 863.653 1023.24 858.982 1028.9 859.313 C 1056.01 861.149 1083.79 864.889 1110.67 869.029 C 1138.6 873.333 1133.45 897.56 1132.91 917.765 C 1149.55 891.707 1176.45 863.218 1206.72 851.586 C 1211.03 849.928 1225.98 850.317 1231.05 850.58 C 1264.38 852.315 1297.77 854.999 1331.04 857.762 C 1339.06 858.425 1346.03 860.504 1350.95 867.367 C 1353.12 870.519 1356.83 876.643 1356.61 880.712 C 1355.04 910.149 1346.18 942.583 1342.06 971.566 C 1367.58 984.408 1378.92 1007.67 1381.54 1035.12 C 1414.51 1010.51 1449.19 1014.2 1481.93 1036.45 C 1481.76 958.29 1504.53 919.359 1555.72 862.61 C 1570.5 846.228 1584.32 843.865 1604.94 849.78 C 1604.41 815.622 1606.26 775.639 1607.89 741.476 C 1608.94 719.373 1645 714.875 1661.37 709.945 C 1674.79 705.907 1693.89 700.575 1708.28 698.902 C 1734.17 697.373 1740.16 713.959 1739.96 736.233 C 1757.91 719.477 1814.43 708.082 1839.6 701.325 C 1855.28 697.115 1866.62 708.025 1873.7 721.327 C 1873.66 743.065 1866.39 773.578 1863.44 797.166 C 1860.16 823.37 1860.35 847.203 1857.85 872.109 C 1914.02 861.51 1965.9 827.84 1957.18 911.965 C 1952.1 960.958 1945.14 960.979 1924.82 1002.2 C 1933.89 1008.64 1938.63 1012.99 1946.15 1020.43 C 1959.88 1034.01 1994.77 1085.54 1992.1 1105.05 C 1989.16 1126.56 1948.3 1187.02 1931.52 1204.2 C 1926.28 1209.56 1919.16 1210.06 1912.23 1209.91 C 1891.55 1209.48 1884.84 1184.43 1876.21 1167.8 C 1870.89 1157.33 1864.34 1147.54 1856.7 1138.63 C 1850.52 1153.21 1848.95 1178.59 1833.02 1185.34 C 1823.88 1189.22 1810.37 1192.7 1800.32 1194.47 C 1782.49 1197.59 1761.19 1206.16 1743.54 1201.17 C 1734.99 1198.63 1729.87 1189.7 1726.63 1182.11 C 1699.09 1189.67 1667.36 1198.14 1639.11 1201.77 C 1601.58 1206.59 1606.37 1164.49 1605.35 1139.27 C 1597.88 1153.01 1588.41 1167.86 1580.18 1181.33 C 1561.42 1208.66 1542.42 1195.49 1517.94 1184.74 C 1507.42 1180.12 1499.64 1175.38 1491.43 1167.38 C 1483.75 1174.66 1476.23 1180.46 1466.77 1185.32 C 1448.01 1194.97 1426.16 1196.7 1406.11 1190.12 C 1381.15 1182.03 1366.13 1166.48 1354.56 1143.82 C 1313.41 1198.48 1242.9 1208.07 1180.17 1189.59 C 1165.5 1185.27 1129.48 1167.6 1124.43 1153.34 C 1118.17 1135.67 1133.98 1090.75 1140.81 1073.74 C 1138.13 1067.94 1126.91 1052.25 1121.96 1042.82 C 1122.55 1058.66 1118.33 1092.82 1117.35 1111.36 C 1115.8 1140.77 1114.2 1185.08 1109.18 1213.11 C 1098.62 1261.49 1072.23 1306.27 1045.28 1347.26 C 1033.43 1365.27 1022.39 1368 1002.03 1364.31 C 965.822 1358.11 935.368 1348.25 904.455 1327.7 C 879.212 1310.92 863.007 1265.78 866.409 1237.18 C 867.563 1227.48 892.03 1182.74 898.959 1173.34 C 885.773 1164.05 886.558 1152.86 885.863 1138.04 C 885.308 1126.19 884.891 1114.37 884.931 1102.5 C 881.309 1109.72 877.452 1116.82 873.367 1123.78 C 856.652 1151.84 831.652 1167.78 807.409 1188.47 C 802.314 1192.82 790.787 1201.96 784.249 1202.64 C 755.431 1205.66 725.062 1194.34 701.461 1178.38 C 664.729 1153.54 645.465 1124.08 637.066 1081 C 625.097 1091.03 609.895 1092.14 594.867 1094.39 C 576.532 1157.27 556.624 1212.57 516.707 1264.93 C 468.875 1327.66 402.247 1363.08 324.428 1371.79 C 254.036 1378.79 184.89 1373.66 126.968 1328.76 C 58.3439 1275.56 37.7653 1175.39 92.674 1104.8 C 157.922 1020.93 278.373 1028.2 373.881 1023.39 C 425.967 1020.76 477.021 1017.89 529.415 1011.75 C 531.372 998.533 535.202 983.778 537.98 970.573 C 543.639 943.669 549.98 915.561 553.506 888.339 C 520.825 886.825 519.482 859.324 495.324 842.224 C 483.079 833.557 471.854 831.9 459.533 825.074 C 429.237 808.29 450.326 780.525 462.926 760.139 C 469.896 748.891 476.668 738.724 483.902 728.392 C 493.759 714.314 502.483 696.407 520.146 692.381 z M 167.622 1172.13 C 175.557 1175.69 180.089 1177.51 188.351 1180.08 C 265.389 1204.84 374.483 1195.83 447.508 1159.67 C 461.373 1152.81 498.99 1125.36 502.18 1110.26 L 501.1 1109.13 L 498.359 1109.34 L 321.562 1139.02 C 293.726 1143.65 265.97 1148.76 238.308 1154.34 C 215.405 1158.91 189.481 1164.12 167.622 1172.13 z M 960.336 1191.01 C 964.436 1192.84 968.616 1194.77 972.761 1196.47 C 978.605 1198.32 984.483 1200.05 990.392 1201.68 C 990.292 1194.28 989.165 1149.26 987.809 1143.77 C 980.995 1157.56 970.946 1181.67 960.336 1191.01 z"/>
<path transform="translate(0,0)" fill="rgb(254,254,254)" d="M 642.131 725.716 C 652.135 725.588 649.276 736.922 648.721 744.189 C 641.128 843.482 609.651 937.754 584.289 1033.21 C 604.082 1031.22 623.438 1028.94 643.332 1028.54 C 634.352 1039.93 625.767 1052.01 616.532 1063.08 C 604.284 1066.02 586.642 1068.34 573.8 1070.38 C 545.667 1175.31 500.809 1285.32 391.164 1327.81 C 326.918 1352.71 240.151 1356.01 176.564 1328 C 96.1423 1292.4 57.2954 1187.14 118.32 1116.6 C 168.607 1058.47 255.107 1055.1 326.103 1052.3 C 355.01 1051.25 383.909 1049.99 412.797 1048.51 C 461.752 1045.87 503.2 1040.49 550.792 1036.5 C 556.898 1016.04 563.944 979.472 568.146 958.395 C 576.226 918.548 583.675 878.577 590.49 838.495 C 594.249 815.674 597.019 792.552 600.894 769.867 C 610.662 759.027 631.957 733.021 642.131 725.716 z M 167.622 1172.13 C 175.557 1175.69 180.089 1177.51 188.351 1180.08 C 265.389 1204.84 374.483 1195.83 447.508 1159.67 C 461.373 1152.81 498.99 1125.36 502.18 1110.26 L 501.1 1109.13 L 498.359 1109.34 L 321.562 1139.02 C 293.726 1143.65 265.97 1148.76 238.308 1154.34 C 215.405 1158.91 189.481 1164.12 167.622 1172.13 z"/>
<path transform="translate(0,0)" fill="rgb(0,0,0)" d="M 540.079 1075.5 L 540.512 1075.78 C 541.786 1080.11 531.564 1108.83 529.612 1114.18 C 516.596 1149.89 475.865 1178.07 441.698 1192.16 C 358.077 1226.65 240.976 1231.26 156.737 1197.54 C 104.231 1174.92 139.843 1150.91 175.226 1141.16 C 226.305 1127.09 278.892 1118.95 331.083 1109.93 L 456.916 1088.97 C 484.385 1084.43 512.6 1079.3 540.079 1075.5 z M 167.622 1172.13 C 175.557 1175.69 180.089 1177.51 188.351 1180.08 C 265.389 1204.84 374.483 1195.83 447.508 1159.67 C 461.373 1152.81 498.99 1125.36 502.18 1110.26 L 501.1 1109.13 L 498.359 1109.34 L 321.562 1139.02 C 293.726 1143.65 265.97 1148.76 238.308 1154.34 C 215.405 1158.91 189.481 1164.12 167.622 1172.13 z"/>
<path transform="translate(0,0)" fill="rgb(254,254,254)" d="M 988.01 883.125 C 988.693 883.224 989.262 883.709 989.869 884.039 C 990.505 888.445 988.05 929.994 987.73 937.212 C 985.998 972.231 985.125 1007.29 985.113 1042.35 C 1012.94 988.4 1024.18 945.493 1029.81 885.799 C 1053.31 888.477 1084.66 891.248 1107.28 895.313 C 1106.48 916.311 1103.88 941.592 1102.25 962.788 L 1093.87 1077.43 L 1087.78 1159.48 C 1086.6 1174.9 1085.26 1202.1 1081.22 1216.15 C 1069.3 1257.55 1043.06 1305.66 1016.61 1339.51 C 980.517 1332.18 952.664 1327.55 921.063 1306.43 C 901.164 1290.44 894.707 1266.74 892.488 1242.05 C 902.602 1225.18 910.839 1204.64 921.001 1188.52 C 922.064 1190.27 923.198 1191.98 924.401 1193.64 C 944.436 1220.82 986.547 1230.65 1018.33 1235.59 C 1017.34 1175.42 1009.63 1098.82 1014.89 1041.38 C 991.597 1076.51 964.819 1128.81 946.638 1166.81 C 937.695 1161.97 924.153 1156.53 914.171 1151.5 C 912.392 1132.41 912.425 1109.58 911.277 1090 C 907.606 1027.36 907.585 964.819 906.157 902.207 C 939.146 897.355 956.272 892.623 988.01 883.125 z"/>
<path transform="translate(0,0)" fill="rgb(254,254,254)" d="M 1710.56 725.129 L 1712.01 725.561 C 1714.11 730.35 1710.05 779.691 1709.77 788.09 C 1705.7 909.573 1698.34 1036.74 1713.48 1157.43 C 1687.92 1164.42 1660.86 1169.91 1634.9 1175.47 C 1630.67 1139.19 1629.09 1085.25 1628.61 1048.52 C 1617.5 1064.47 1597.65 1100.71 1587.09 1118.59 C 1576.36 1135.91 1566.4 1153.77 1554.83 1170.55 C 1539.58 1164.47 1529.3 1160.44 1514.75 1152.17 C 1508.52 1113.8 1505.33 1015.6 1514.63 979.049 C 1517.2 969.01 1520.88 959.289 1525.61 950.067 C 1535.54 930.51 1567.11 884.763 1586.23 873.425 C 1603.17 874.372 1615.12 878.182 1630.9 883.719 C 1630.99 837.938 1633.03 792.132 1633.91 746.288 C 1658.4 738.583 1685.69 731.496 1710.56 725.129 z"/>
<path transform="translate(0,0)" fill="rgb(0,0,0)" d="M 1579.54 941.437 C 1599.67 945.981 1615.18 951.746 1632.67 963.166 C 1622.79 992.009 1611.21 1020.24 1597.98 1047.71 C 1592.43 1059.27 1587.42 1069.58 1581.22 1080.81 C 1581.04 1067.14 1579.57 1051.89 1579.08 1037.82 C 1577.91 1005.7 1578.06 973.543 1579.54 941.437 z"/>
<path transform="translate(0,0)" fill="rgb(254,254,254)" d="M 1842.34 728.177 C 1844.78 727.757 1843.93 727.699 1846.36 728.565 C 1848.25 733.939 1843.73 746.706 1842.66 752.953 C 1839.5 771.808 1837.06 790.778 1835.36 809.821 C 1828.96 880.224 1827.46 952.95 1827.44 1023.66 C 1827.44 1040.92 1828.07 1058.43 1827.13 1075.63 C 1840.25 1044.86 1851.45 1008.51 1859.51 975.965 C 1865.29 952.603 1864.4 923.192 1863.44 899.049 C 1886.01 893.75 1908.51 888.172 1930.95 882.317 C 1931.1 899.646 1929.97 935.362 1922.41 950.014 C 1910.71 972.7 1898.02 998.24 1885.76 1020.67 C 1927.15 1021.41 1950.66 1068.46 1965.13 1101.65 C 1965.09 1114.18 1924.09 1171.85 1914.08 1183.93 C 1899.01 1147.03 1878.27 1115.5 1847.26 1090 C 1837.08 1111.15 1828.4 1139.3 1820.79 1161.98 C 1799.57 1165.85 1775.17 1171.9 1753.92 1176.71 C 1752.56 1139 1752.91 1099.34 1752.95 1061.52 C 1752.95 958.488 1755.72 855.471 1761.25 752.584 C 1783.08 744.79 1820.55 733.339 1842.34 728.177 z"/>
<path transform="translate(0,0)" fill="rgb(254,254,254)" d="M 746.455 883.717 C 767.331 885.033 788.485 885.419 809.388 886.314 C 821.141 886.817 833.598 886.54 845.193 887.965 L 833.684 914.258 C 889.033 958.755 882.572 1053.5 850.335 1109.65 C 837.17 1132.59 810.5 1150.78 789.627 1166.98 L 779.134 1176.17 C 694.657 1172.43 648.248 1093.45 662.237 1014.93 C 670.608 967.939 707.224 911.22 746.455 883.717 z"/>
<path transform="translate(0,0)" fill="rgb(0,0,0)" d="M 745.209 938.63 C 812.847 948.106 807.397 1051.09 797.994 1099.58 C 797.291 1103.2 797.394 1105.11 794.428 1107.03 C 723.325 1084.2 727.189 996.866 745.209 938.63 z"/>
<path transform="translate(0,0)" fill="rgb(254,254,254)" d="M 762.392 980.526 C 777.711 989.436 776.474 1045.88 775.828 1062.8 C 759.432 1041.9 759.79 1005.42 762.392 980.526 z"/>
<path transform="translate(0,0)" fill="rgb(254,254,254)" d="M 1214.41 877.131 C 1226.36 876.617 1247.81 878.679 1260.35 879.572 C 1283.43 881.216 1307.5 882.548 1330.46 884.763 C 1325.26 910.278 1320.77 938.055 1316.4 963.803 C 1294.26 948.335 1268.24 944.13 1241.96 940.846 C 1235.09 939.988 1218.85 937.389 1212.85 939.604 C 1212.08 942.242 1212.09 944.228 1212.85 946.804 C 1226.12 991.204 1277.59 986.804 1313.43 991.457 C 1372.28 999.095 1360.69 1087.15 1336.41 1122.25 C 1316.52 1151.01 1295.78 1162.17 1262.29 1168.78 C 1222.32 1174.58 1180.6 1168.54 1149.24 1141.42 C 1151.43 1128.54 1158.21 1106.83 1161.96 1093.59 L 1162.26 1093.76 C 1193.54 1111.76 1231 1121.07 1266.61 1111.81 C 1273.38 1110.05 1292.82 1102.38 1286.66 1093.15 C 1274.83 1075.4 1239.23 1080.55 1220.9 1077.39 C 1210.73 1075.64 1202.16 1075.43 1192.37 1071.94 C 1141.04 1058.2 1132.49 996.437 1146.85 952.465 C 1157.03 921.273 1184.43 892.022 1214.41 877.131 z"/>
<path transform="translate(0,0)" fill="rgb(188,33,33)" d="M 1420.82 1048.19 C 1453.11 1042.78 1483.61 1064.73 1488.73 1097.06 C 1493.85 1129.39 1471.63 1159.69 1439.25 1164.52 C 1407.29 1169.29 1377.45 1147.41 1372.4 1115.49 C 1367.34 1083.57 1388.95 1053.54 1420.82 1048.19 z"/>
<path transform="translate(0,0)" fill="rgb(254,254,254)" d="M 524.197 718.931 C 534.443 720.563 544.441 723.439 552.694 730.093 C 557.519 733.924 561.23 738.977 563.44 744.728 C 566.707 753.239 567.677 767.239 569.285 776.622 C 571.452 789.269 574.436 802.414 575.558 815.106 C 569.593 828.783 557.715 848.805 550.092 862.35 C 546.038 857.067 541.942 851.817 537.802 846.601 C 515.856 819.665 502.726 812.205 470.935 801.048 C 480.101 783.014 511.586 734.641 524.197 718.931 z"/>
</svg>